<mxfile host="app.diagrams.net" agent="Mozilla/5.0 (Windows NT 10.0; Win64; x64) AppleWebKit/537.36 (KHTML, like Gecko) Chrome/131.0.0.0 Safari/537.36" version="25.0.3">
  <diagram id="C5RBs43oDa-KdzZeNtuy" name="Page-1">
    <mxGraphModel dx="1843" dy="1926" grid="1" gridSize="10" guides="1" tooltips="1" connect="1" arrows="1" fold="1" page="1" pageScale="1" pageWidth="827" pageHeight="1169" math="0" shadow="0">
      <root>
        <mxCell id="WIyWlLk6GJQsqaUBKTNV-0" />
        <mxCell id="WIyWlLk6GJQsqaUBKTNV-1" parent="WIyWlLk6GJQsqaUBKTNV-0" />
        <mxCell id="mzyxMpm9BV7X5Ml5ykUT-2" style="edgeStyle=orthogonalEdgeStyle;rounded=0;orthogonalLoop=1;jettySize=auto;html=1;exitX=0.5;exitY=1;exitDx=0;exitDy=0;exitPerimeter=0;entryX=0.5;entryY=0;entryDx=0;entryDy=0;" edge="1" parent="WIyWlLk6GJQsqaUBKTNV-1" source="mzyxMpm9BV7X5Ml5ykUT-0" target="mzyxMpm9BV7X5Ml5ykUT-1">
          <mxGeometry relative="1" as="geometry" />
        </mxCell>
        <mxCell id="mzyxMpm9BV7X5Ml5ykUT-0" value="START" style="strokeWidth=2;html=1;shape=mxgraph.flowchart.start_1;whiteSpace=wrap;" vertex="1" parent="WIyWlLk6GJQsqaUBKTNV-1">
          <mxGeometry x="180.5" y="-90" width="100" height="60" as="geometry" />
        </mxCell>
        <mxCell id="mzyxMpm9BV7X5Ml5ykUT-1" value="READ GRADE" style="shape=parallelogram;html=1;strokeWidth=2;perimeter=parallelogramPerimeter;whiteSpace=wrap;rounded=1;arcSize=12;size=0.23;" vertex="1" parent="WIyWlLk6GJQsqaUBKTNV-1">
          <mxGeometry x="120" y="20" width="221" height="61.8" as="geometry" />
        </mxCell>
        <mxCell id="mzyxMpm9BV7X5Ml5ykUT-7" style="edgeStyle=orthogonalEdgeStyle;rounded=0;orthogonalLoop=1;jettySize=auto;html=1;exitX=1;exitY=0.5;exitDx=0;exitDy=0;exitPerimeter=0;" edge="1" parent="WIyWlLk6GJQsqaUBKTNV-1" source="mzyxMpm9BV7X5Ml5ykUT-3" target="mzyxMpm9BV7X5Ml5ykUT-6">
          <mxGeometry relative="1" as="geometry" />
        </mxCell>
        <mxCell id="mzyxMpm9BV7X5Ml5ykUT-8" value="YES" style="edgeLabel;html=1;align=center;verticalAlign=middle;resizable=0;points=[];" vertex="1" connectable="0" parent="mzyxMpm9BV7X5Ml5ykUT-7">
          <mxGeometry x="-0.4576" relative="1" as="geometry">
            <mxPoint as="offset" />
          </mxGeometry>
        </mxCell>
        <mxCell id="mzyxMpm9BV7X5Ml5ykUT-3" value="GRADE &amp;gt;= 90" style="strokeWidth=2;html=1;shape=mxgraph.flowchart.decision;whiteSpace=wrap;" vertex="1" parent="WIyWlLk6GJQsqaUBKTNV-1">
          <mxGeometry x="153" y="285" width="155" height="110" as="geometry" />
        </mxCell>
        <mxCell id="mzyxMpm9BV7X5Ml5ykUT-39" style="edgeStyle=orthogonalEdgeStyle;rounded=0;orthogonalLoop=1;jettySize=auto;html=1;exitX=1;exitY=0.5;exitDx=0;exitDy=0;" edge="1" parent="WIyWlLk6GJQsqaUBKTNV-1" source="mzyxMpm9BV7X5Ml5ykUT-6" target="mzyxMpm9BV7X5Ml5ykUT-36">
          <mxGeometry relative="1" as="geometry" />
        </mxCell>
        <mxCell id="mzyxMpm9BV7X5Ml5ykUT-6" value="PRINT &quot; A &quot;" style="shape=parallelogram;html=1;strokeWidth=2;perimeter=parallelogramPerimeter;whiteSpace=wrap;rounded=1;arcSize=12;size=0.23;" vertex="1" parent="WIyWlLk6GJQsqaUBKTNV-1">
          <mxGeometry x="470" y="310" width="220" height="60" as="geometry" />
        </mxCell>
        <mxCell id="mzyxMpm9BV7X5Ml5ykUT-9" style="edgeStyle=orthogonalEdgeStyle;rounded=0;orthogonalLoop=1;jettySize=auto;html=1;exitX=1;exitY=0.5;exitDx=0;exitDy=0;exitPerimeter=0;" edge="1" parent="WIyWlLk6GJQsqaUBKTNV-1" source="mzyxMpm9BV7X5Ml5ykUT-11" target="mzyxMpm9BV7X5Ml5ykUT-12">
          <mxGeometry relative="1" as="geometry" />
        </mxCell>
        <mxCell id="mzyxMpm9BV7X5Ml5ykUT-10" value="YES" style="edgeLabel;html=1;align=center;verticalAlign=middle;resizable=0;points=[];" vertex="1" connectable="0" parent="mzyxMpm9BV7X5Ml5ykUT-9">
          <mxGeometry x="-0.4576" relative="1" as="geometry">
            <mxPoint as="offset" />
          </mxGeometry>
        </mxCell>
        <mxCell id="mzyxMpm9BV7X5Ml5ykUT-11" value="GRADE &amp;gt;= 80" style="strokeWidth=2;html=1;shape=mxgraph.flowchart.decision;whiteSpace=wrap;" vertex="1" parent="WIyWlLk6GJQsqaUBKTNV-1">
          <mxGeometry x="153" y="420" width="155" height="110" as="geometry" />
        </mxCell>
        <mxCell id="mzyxMpm9BV7X5Ml5ykUT-40" style="edgeStyle=orthogonalEdgeStyle;rounded=0;orthogonalLoop=1;jettySize=auto;html=1;exitX=1;exitY=0.5;exitDx=0;exitDy=0;" edge="1" parent="WIyWlLk6GJQsqaUBKTNV-1" source="mzyxMpm9BV7X5Ml5ykUT-12">
          <mxGeometry relative="1" as="geometry">
            <mxPoint x="760" y="1101.60009765625" as="targetPoint" />
          </mxGeometry>
        </mxCell>
        <mxCell id="mzyxMpm9BV7X5Ml5ykUT-12" value="PRINT &quot; B&amp;nbsp; &quot;" style="shape=parallelogram;html=1;strokeWidth=2;perimeter=parallelogramPerimeter;whiteSpace=wrap;rounded=1;arcSize=12;size=0.23;" vertex="1" parent="WIyWlLk6GJQsqaUBKTNV-1">
          <mxGeometry x="470" y="445" width="220" height="60" as="geometry" />
        </mxCell>
        <mxCell id="mzyxMpm9BV7X5Ml5ykUT-13" style="edgeStyle=orthogonalEdgeStyle;rounded=0;orthogonalLoop=1;jettySize=auto;html=1;exitX=1;exitY=0.5;exitDx=0;exitDy=0;exitPerimeter=0;" edge="1" parent="WIyWlLk6GJQsqaUBKTNV-1" source="mzyxMpm9BV7X5Ml5ykUT-15" target="mzyxMpm9BV7X5Ml5ykUT-16">
          <mxGeometry relative="1" as="geometry" />
        </mxCell>
        <mxCell id="mzyxMpm9BV7X5Ml5ykUT-14" value="YES" style="edgeLabel;html=1;align=center;verticalAlign=middle;resizable=0;points=[];" vertex="1" connectable="0" parent="mzyxMpm9BV7X5Ml5ykUT-13">
          <mxGeometry x="-0.4576" relative="1" as="geometry">
            <mxPoint as="offset" />
          </mxGeometry>
        </mxCell>
        <mxCell id="mzyxMpm9BV7X5Ml5ykUT-15" value="GRADE &amp;gt;= 70" style="strokeWidth=2;html=1;shape=mxgraph.flowchart.decision;whiteSpace=wrap;" vertex="1" parent="WIyWlLk6GJQsqaUBKTNV-1">
          <mxGeometry x="153" y="550" width="155" height="110" as="geometry" />
        </mxCell>
        <mxCell id="mzyxMpm9BV7X5Ml5ykUT-16" value="PRINT &quot; C &quot;" style="shape=parallelogram;html=1;strokeWidth=2;perimeter=parallelogramPerimeter;whiteSpace=wrap;rounded=1;arcSize=12;size=0.23;" vertex="1" parent="WIyWlLk6GJQsqaUBKTNV-1">
          <mxGeometry x="470" y="575" width="220" height="60" as="geometry" />
        </mxCell>
        <mxCell id="mzyxMpm9BV7X5Ml5ykUT-17" style="edgeStyle=orthogonalEdgeStyle;rounded=0;orthogonalLoop=1;jettySize=auto;html=1;exitX=1;exitY=0.5;exitDx=0;exitDy=0;exitPerimeter=0;" edge="1" parent="WIyWlLk6GJQsqaUBKTNV-1" source="mzyxMpm9BV7X5Ml5ykUT-19" target="mzyxMpm9BV7X5Ml5ykUT-20">
          <mxGeometry relative="1" as="geometry" />
        </mxCell>
        <mxCell id="mzyxMpm9BV7X5Ml5ykUT-18" value="YES" style="edgeLabel;html=1;align=center;verticalAlign=middle;resizable=0;points=[];" vertex="1" connectable="0" parent="mzyxMpm9BV7X5Ml5ykUT-17">
          <mxGeometry x="-0.4576" relative="1" as="geometry">
            <mxPoint as="offset" />
          </mxGeometry>
        </mxCell>
        <mxCell id="mzyxMpm9BV7X5Ml5ykUT-19" value="GRADE &amp;gt;= 60" style="strokeWidth=2;html=1;shape=mxgraph.flowchart.decision;whiteSpace=wrap;" vertex="1" parent="WIyWlLk6GJQsqaUBKTNV-1">
          <mxGeometry x="153" y="680" width="155" height="110" as="geometry" />
        </mxCell>
        <mxCell id="mzyxMpm9BV7X5Ml5ykUT-42" style="edgeStyle=orthogonalEdgeStyle;rounded=0;orthogonalLoop=1;jettySize=auto;html=1;exitX=1;exitY=0.5;exitDx=0;exitDy=0;" edge="1" parent="WIyWlLk6GJQsqaUBKTNV-1" source="mzyxMpm9BV7X5Ml5ykUT-20">
          <mxGeometry relative="1" as="geometry">
            <mxPoint x="760" y="1100" as="targetPoint" />
          </mxGeometry>
        </mxCell>
        <mxCell id="mzyxMpm9BV7X5Ml5ykUT-20" value="PRINT &quot; D &quot;" style="shape=parallelogram;html=1;strokeWidth=2;perimeter=parallelogramPerimeter;whiteSpace=wrap;rounded=1;arcSize=12;size=0.23;" vertex="1" parent="WIyWlLk6GJQsqaUBKTNV-1">
          <mxGeometry x="470" y="705" width="220" height="60" as="geometry" />
        </mxCell>
        <mxCell id="mzyxMpm9BV7X5Ml5ykUT-21" style="edgeStyle=orthogonalEdgeStyle;rounded=0;orthogonalLoop=1;jettySize=auto;html=1;exitX=1;exitY=0.5;exitDx=0;exitDy=0;exitPerimeter=0;" edge="1" parent="WIyWlLk6GJQsqaUBKTNV-1" source="mzyxMpm9BV7X5Ml5ykUT-23" target="mzyxMpm9BV7X5Ml5ykUT-24">
          <mxGeometry relative="1" as="geometry" />
        </mxCell>
        <mxCell id="mzyxMpm9BV7X5Ml5ykUT-22" value="YES" style="edgeLabel;html=1;align=center;verticalAlign=middle;resizable=0;points=[];" vertex="1" connectable="0" parent="mzyxMpm9BV7X5Ml5ykUT-21">
          <mxGeometry x="-0.4576" relative="1" as="geometry">
            <mxPoint as="offset" />
          </mxGeometry>
        </mxCell>
        <mxCell id="mzyxMpm9BV7X5Ml5ykUT-63" style="edgeStyle=orthogonalEdgeStyle;rounded=0;orthogonalLoop=1;jettySize=auto;html=1;exitX=0.5;exitY=1;exitDx=0;exitDy=0;exitPerimeter=0;entryX=0;entryY=0.5;entryDx=0;entryDy=0;" edge="1" parent="WIyWlLk6GJQsqaUBKTNV-1" source="mzyxMpm9BV7X5Ml5ykUT-23" target="mzyxMpm9BV7X5Ml5ykUT-61">
          <mxGeometry relative="1" as="geometry">
            <Array as="points">
              <mxPoint x="230" y="1100" />
            </Array>
          </mxGeometry>
        </mxCell>
        <mxCell id="mzyxMpm9BV7X5Ml5ykUT-65" value="NO" style="edgeLabel;html=1;align=center;verticalAlign=middle;resizable=0;points=[];" vertex="1" connectable="0" parent="mzyxMpm9BV7X5Ml5ykUT-63">
          <mxGeometry x="-0.5341" y="-2" relative="1" as="geometry">
            <mxPoint as="offset" />
          </mxGeometry>
        </mxCell>
        <mxCell id="mzyxMpm9BV7X5Ml5ykUT-23" value="GRADE &amp;gt;= 50" style="strokeWidth=2;html=1;shape=mxgraph.flowchart.decision;whiteSpace=wrap;" vertex="1" parent="WIyWlLk6GJQsqaUBKTNV-1">
          <mxGeometry x="153" y="835" width="155" height="110" as="geometry" />
        </mxCell>
        <mxCell id="mzyxMpm9BV7X5Ml5ykUT-24" value="PRINT &quot; E &quot;" style="shape=parallelogram;html=1;strokeWidth=2;perimeter=parallelogramPerimeter;whiteSpace=wrap;rounded=1;arcSize=12;size=0.23;" vertex="1" parent="WIyWlLk6GJQsqaUBKTNV-1">
          <mxGeometry x="470" y="860" width="220" height="60" as="geometry" />
        </mxCell>
        <mxCell id="mzyxMpm9BV7X5Ml5ykUT-31" style="edgeStyle=orthogonalEdgeStyle;rounded=0;orthogonalLoop=1;jettySize=auto;html=1;exitX=0.5;exitY=1;exitDx=0;exitDy=0;exitPerimeter=0;entryX=0.5;entryY=0;entryDx=0;entryDy=0;entryPerimeter=0;" edge="1" parent="WIyWlLk6GJQsqaUBKTNV-1" source="mzyxMpm9BV7X5Ml5ykUT-3" target="mzyxMpm9BV7X5Ml5ykUT-11">
          <mxGeometry relative="1" as="geometry" />
        </mxCell>
        <mxCell id="mzyxMpm9BV7X5Ml5ykUT-32" style="edgeStyle=orthogonalEdgeStyle;rounded=0;orthogonalLoop=1;jettySize=auto;html=1;exitX=0.5;exitY=1;exitDx=0;exitDy=0;exitPerimeter=0;entryX=0.5;entryY=0;entryDx=0;entryDy=0;entryPerimeter=0;" edge="1" parent="WIyWlLk6GJQsqaUBKTNV-1" source="mzyxMpm9BV7X5Ml5ykUT-11" target="mzyxMpm9BV7X5Ml5ykUT-15">
          <mxGeometry relative="1" as="geometry" />
        </mxCell>
        <mxCell id="mzyxMpm9BV7X5Ml5ykUT-33" style="edgeStyle=orthogonalEdgeStyle;rounded=0;orthogonalLoop=1;jettySize=auto;html=1;exitX=0.5;exitY=1;exitDx=0;exitDy=0;exitPerimeter=0;entryX=0.5;entryY=0;entryDx=0;entryDy=0;entryPerimeter=0;" edge="1" parent="WIyWlLk6GJQsqaUBKTNV-1" source="mzyxMpm9BV7X5Ml5ykUT-15" target="mzyxMpm9BV7X5Ml5ykUT-19">
          <mxGeometry relative="1" as="geometry" />
        </mxCell>
        <mxCell id="mzyxMpm9BV7X5Ml5ykUT-34" style="edgeStyle=orthogonalEdgeStyle;rounded=0;orthogonalLoop=1;jettySize=auto;html=1;exitX=0.5;exitY=1;exitDx=0;exitDy=0;exitPerimeter=0;entryX=0.5;entryY=0;entryDx=0;entryDy=0;entryPerimeter=0;" edge="1" parent="WIyWlLk6GJQsqaUBKTNV-1" source="mzyxMpm9BV7X5Ml5ykUT-19" target="mzyxMpm9BV7X5Ml5ykUT-23">
          <mxGeometry relative="1" as="geometry" />
        </mxCell>
        <mxCell id="mzyxMpm9BV7X5Ml5ykUT-41" style="edgeStyle=orthogonalEdgeStyle;rounded=0;orthogonalLoop=1;jettySize=auto;html=1;exitX=1;exitY=0.5;exitDx=0;exitDy=0;entryX=0.5;entryY=0;entryDx=0;entryDy=0;entryPerimeter=0;" edge="1" parent="WIyWlLk6GJQsqaUBKTNV-1" source="mzyxMpm9BV7X5Ml5ykUT-16" target="mzyxMpm9BV7X5Ml5ykUT-36">
          <mxGeometry relative="1" as="geometry" />
        </mxCell>
        <mxCell id="mzyxMpm9BV7X5Ml5ykUT-51" style="edgeStyle=orthogonalEdgeStyle;rounded=0;orthogonalLoop=1;jettySize=auto;html=1;exitX=1;exitY=0.5;exitDx=0;exitDy=0;exitPerimeter=0;" edge="1" parent="WIyWlLk6GJQsqaUBKTNV-1" source="mzyxMpm9BV7X5Ml5ykUT-53" target="mzyxMpm9BV7X5Ml5ykUT-54">
          <mxGeometry relative="1" as="geometry" />
        </mxCell>
        <mxCell id="mzyxMpm9BV7X5Ml5ykUT-52" value="YES" style="edgeLabel;html=1;align=center;verticalAlign=middle;resizable=0;points=[];" vertex="1" connectable="0" parent="mzyxMpm9BV7X5Ml5ykUT-51">
          <mxGeometry x="-0.4576" relative="1" as="geometry">
            <mxPoint as="offset" />
          </mxGeometry>
        </mxCell>
        <mxCell id="mzyxMpm9BV7X5Ml5ykUT-53" value="GRADE &amp;gt; 100" style="strokeWidth=2;html=1;shape=mxgraph.flowchart.decision;whiteSpace=wrap;" vertex="1" parent="WIyWlLk6GJQsqaUBKTNV-1">
          <mxGeometry x="153" y="130" width="155" height="110" as="geometry" />
        </mxCell>
        <mxCell id="mzyxMpm9BV7X5Ml5ykUT-54" value="PRINT &quot; F &quot;" style="shape=parallelogram;html=1;strokeWidth=2;perimeter=parallelogramPerimeter;whiteSpace=wrap;rounded=1;arcSize=12;size=0.23;" vertex="1" parent="WIyWlLk6GJQsqaUBKTNV-1">
          <mxGeometry x="490" y="155" width="220" height="60" as="geometry" />
        </mxCell>
        <mxCell id="mzyxMpm9BV7X5Ml5ykUT-58" style="edgeStyle=orthogonalEdgeStyle;rounded=0;orthogonalLoop=1;jettySize=auto;html=1;exitX=0.5;exitY=1;exitDx=0;exitDy=0;entryX=0.5;entryY=0;entryDx=0;entryDy=0;entryPerimeter=0;" edge="1" parent="WIyWlLk6GJQsqaUBKTNV-1" source="mzyxMpm9BV7X5Ml5ykUT-1" target="mzyxMpm9BV7X5Ml5ykUT-53">
          <mxGeometry relative="1" as="geometry" />
        </mxCell>
        <mxCell id="mzyxMpm9BV7X5Ml5ykUT-59" style="edgeStyle=orthogonalEdgeStyle;rounded=0;orthogonalLoop=1;jettySize=auto;html=1;exitX=0.5;exitY=1;exitDx=0;exitDy=0;exitPerimeter=0;entryX=0.5;entryY=0;entryDx=0;entryDy=0;entryPerimeter=0;" edge="1" parent="WIyWlLk6GJQsqaUBKTNV-1" source="mzyxMpm9BV7X5Ml5ykUT-53" target="mzyxMpm9BV7X5Ml5ykUT-3">
          <mxGeometry relative="1" as="geometry" />
        </mxCell>
        <mxCell id="mzyxMpm9BV7X5Ml5ykUT-60" style="edgeStyle=orthogonalEdgeStyle;rounded=0;orthogonalLoop=1;jettySize=auto;html=1;exitX=1;exitY=0.5;exitDx=0;exitDy=0;entryX=0.5;entryY=0;entryDx=0;entryDy=0;entryPerimeter=0;" edge="1" parent="WIyWlLk6GJQsqaUBKTNV-1" source="mzyxMpm9BV7X5Ml5ykUT-54" target="mzyxMpm9BV7X5Ml5ykUT-36">
          <mxGeometry relative="1" as="geometry">
            <Array as="points">
              <mxPoint x="760" y="185" />
            </Array>
          </mxGeometry>
        </mxCell>
        <mxCell id="mzyxMpm9BV7X5Ml5ykUT-61" value="PRINT &quot; F &quot;" style="shape=parallelogram;html=1;strokeWidth=2;perimeter=parallelogramPerimeter;whiteSpace=wrap;rounded=1;arcSize=12;size=0.23;" vertex="1" parent="WIyWlLk6GJQsqaUBKTNV-1">
          <mxGeometry x="350" y="1070" width="220" height="60" as="geometry" />
        </mxCell>
        <mxCell id="mzyxMpm9BV7X5Ml5ykUT-62" value="" style="edgeStyle=orthogonalEdgeStyle;rounded=0;orthogonalLoop=1;jettySize=auto;html=1;exitX=1;exitY=0.5;exitDx=0;exitDy=0;" edge="1" parent="WIyWlLk6GJQsqaUBKTNV-1" source="mzyxMpm9BV7X5Ml5ykUT-24" target="mzyxMpm9BV7X5Ml5ykUT-36">
          <mxGeometry relative="1" as="geometry">
            <mxPoint x="760" y="1100" as="targetPoint" />
            <mxPoint x="665" y="890" as="sourcePoint" />
          </mxGeometry>
        </mxCell>
        <mxCell id="mzyxMpm9BV7X5Ml5ykUT-36" value="END" style="strokeWidth=2;html=1;shape=mxgraph.flowchart.terminator;whiteSpace=wrap;" vertex="1" parent="WIyWlLk6GJQsqaUBKTNV-1">
          <mxGeometry x="710" y="1070" width="100" height="60" as="geometry" />
        </mxCell>
        <mxCell id="mzyxMpm9BV7X5Ml5ykUT-64" style="edgeStyle=orthogonalEdgeStyle;rounded=0;orthogonalLoop=1;jettySize=auto;html=1;exitX=1;exitY=0.5;exitDx=0;exitDy=0;entryX=0;entryY=0.5;entryDx=0;entryDy=0;entryPerimeter=0;" edge="1" parent="WIyWlLk6GJQsqaUBKTNV-1" source="mzyxMpm9BV7X5Ml5ykUT-61" target="mzyxMpm9BV7X5Ml5ykUT-36">
          <mxGeometry relative="1" as="geometry" />
        </mxCell>
      </root>
    </mxGraphModel>
  </diagram>
</mxfile>
